<svg xmlns="http://www.w3.org/2000/svg" width="211" height="24" viewBox="0 0 211 24" fill="none">
<g clip-path="url(#clip0_15556_68)">
<mask id="mask0_15556_68" style="mask-type:luminance" maskUnits="userSpaceOnUse" x="0" y="0" width="211" height="24">
<path d="M211 0H0V24H211V0Z" fill="white"/>
</mask>
<g mask="url(#mask0_15556_68)">
<path d="M11.9281 2.04716C11.9281 2.24787 11.8962 2.46864 11.8324 2.70949C11.7687 2.95033 11.6652 3.15504 11.5217 3.32364C11.3544 3.52434 11.1671 3.67687 10.96 3.78123C10.7528 3.8856 10.4421 3.93779 10.0277 3.93779C9.39827 3.93779 8.90426 3.71701 8.54562 3.27547C8.1871 2.83392 7.80464 2.09935 7.39824 1.07175C7.07956 1.20823 6.82056 1.56146 6.62141 2.13146C6.4222 2.70146 6.32262 3.92574 6.32262 5.80431V6.75565H9.62136V8.05621H6.34651V16.3532C6.34651 16.6664 6.41821 16.9112 6.56168 17.0878C6.70508 17.2564 6.89232 17.3809 7.12334 17.4611C7.31463 17.5253 7.56565 17.5895 7.87635 17.6538C8.1871 17.71 8.466 17.7501 8.71303 17.7742V18.6533H0.645406V17.7742C0.852573 17.7581 1.05177 17.7381 1.24301 17.714C1.44221 17.6899 1.6175 17.6498 1.76889 17.5936C2.02387 17.4972 2.19518 17.3608 2.28283 17.1842C2.37845 16.9995 2.42625 16.7587 2.42625 16.4616V8.05621H0V6.75565H2.42625C2.42625 5.89668 2.54976 5.06571 2.79677 4.26291C3.04377 3.45208 3.42623 2.72956 3.94415 2.09533C4.44612 1.46915 5.1075 0.963372 5.9282 0.578023C6.74892 0.192674 7.71299 0 8.82059 0C9.8086 0 10.5735 0.188662 11.1153 0.565983C11.6572 0.943305 11.9281 1.43703 11.9281 2.04716ZM25.8522 18.4004L20.151 18.7497L19.9718 18.581V17.0035H19.9C19.6291 17.2524 19.3622 17.4972 19.0993 17.7381C18.8443 17.9709 18.5375 18.1836 18.1789 18.3763C17.7726 18.5931 17.3862 18.7537 17.0197 18.858C16.661 18.9623 16.1352 19.0146 15.442 19.0146C14.2388 19.0146 13.3145 18.6493 12.6691 17.9187C12.0317 17.1882 11.7129 16.1566 11.7129 14.8239V9.4049C11.7129 9.09184 11.6532 8.83891 11.5337 8.64626C11.4141 8.44554 11.2548 8.26894 11.0556 8.11639C10.8962 7.99598 10.6891 7.91169 10.4341 7.86351C10.1791 7.80732 9.94802 7.7712 9.74088 7.75516V6.87606L15.5376 6.563L15.669 6.74359V14.7516C15.669 15.5785 15.8245 16.1886 16.1352 16.5821C16.4539 16.9754 16.8882 17.1721 17.438 17.1721C18.0037 17.1721 18.5097 17.0236 18.9558 16.7265C19.41 16.4295 19.7407 16.1124 19.9478 15.7752V9.28455C19.9478 9.01153 19.8961 8.76667 19.7925 8.54991C19.6889 8.33315 19.5375 8.15655 19.3383 8.0201C19.1949 7.92375 18.9878 7.85953 18.7168 7.8274C18.4539 7.79532 18.1829 7.7712 17.904 7.75516V6.87606L23.7008 6.563L23.8801 6.74359V16.0401C23.8801 16.3211 23.9359 16.562 24.0474 16.7627C24.159 16.9554 24.3223 17.1199 24.5374 17.2564C24.6888 17.3528 24.884 17.421 25.1231 17.4611C25.3701 17.4932 25.6131 17.5133 25.8522 17.5213V18.4004ZM42.5968 18.6533H35.4017V17.7742C35.5531 17.7581 35.7364 17.7381 35.9516 17.714C36.1667 17.6899 36.33 17.6498 36.4416 17.5936C36.6089 17.5052 36.7284 17.3768 36.8002 17.2082C36.8719 17.0396 36.9078 16.7908 36.9078 16.4616V10.8259C36.9078 10.0071 36.7563 9.3929 36.4535 8.98343C36.1587 8.56601 35.7205 8.35727 35.1388 8.35727C34.8201 8.35727 34.5213 8.40544 34.2425 8.50174C33.9715 8.59809 33.7046 8.73858 33.4417 8.9232C33.2106 9.08377 33.0233 9.24837 32.8799 9.41696C32.7444 9.5856 32.6289 9.73405 32.5333 9.86254V16.3292C32.5333 16.6102 32.5731 16.8469 32.6528 17.0396C32.7325 17.2243 32.864 17.3648 33.0472 17.4611C33.1747 17.5333 33.3341 17.5976 33.5253 17.6538C33.7165 17.71 33.9038 17.7501 34.087 17.7742V18.6533H26.8202V17.7742C27.0195 17.7581 27.2186 17.7381 27.4178 17.714C27.625 17.6819 27.8003 17.6418 27.9438 17.5936C28.1987 17.5052 28.374 17.3688 28.4696 17.1842C28.5652 16.9995 28.6131 16.7587 28.6131 16.4616V9.45307C28.6131 9.20423 28.5493 8.95938 28.4218 8.7185C28.2943 8.47768 28.127 8.28099 27.9198 8.12845C27.7764 8.0321 27.5932 7.95184 27.37 7.88763C27.1549 7.82341 26.9159 7.77922 26.6529 7.75516V6.87606L32.354 6.563L32.5333 6.74359V8.48974H32.5811C32.8042 8.28901 33.0751 8.04819 33.3939 7.76716C33.7126 7.48619 34.0073 7.25742 34.2782 7.08082C34.5731 6.88812 34.9596 6.72357 35.4377 6.58706C35.9157 6.45061 36.4257 6.38236 36.9675 6.38236C38.2663 6.38236 39.2384 6.75565 39.8838 7.50228C40.5372 8.24084 40.8638 9.22425 40.8638 10.4526V16.3532C40.8638 16.6503 40.9076 16.8871 40.9953 17.0637C41.0829 17.2404 41.2463 17.3809 41.4853 17.4852C41.6128 17.5414 41.7682 17.5976 41.9515 17.6538C42.1427 17.71 42.3578 17.7501 42.5968 17.7742V18.6533ZM59.1743 18.4004L53.2817 18.7497L53.1025 18.581V17.4732L53.019 17.4491C52.6287 17.8746 52.0985 18.2478 51.4293 18.569C50.7679 18.8821 50.0988 19.0387 49.4213 19.0387C47.8118 19.0387 46.4852 18.4365 45.4414 17.2323C44.3977 16.0281 43.8757 14.4707 43.8757 12.56C43.8757 10.866 44.4575 9.41292 45.6207 8.20068C46.7921 6.98845 48.2065 6.38236 49.8636 6.38236C50.5171 6.38236 51.1307 6.45863 51.7043 6.61112C52.2781 6.75565 52.7362 6.92827 53.0789 7.12894V3.19117C53.0789 2.89413 53.019 2.61716 52.8997 2.36027C52.7799 2.09533 52.6204 1.89062 52.4215 1.74612C52.1746 1.56949 51.8637 1.44506 51.4892 1.37281C51.1225 1.29253 50.7522 1.23633 50.3776 1.20421V0.325137L56.8319 0.0120423L57.011 0.204719V15.992C57.011 16.2971 57.0587 16.554 57.1545 16.7627C57.258 16.9714 57.4215 17.136 57.6444 17.2564C57.8118 17.3447 58.0549 17.409 58.3735 17.4491C58.7 17.4892 58.9671 17.5133 59.1743 17.5213V18.4004ZM53.0789 16.2569V9.45307C53.023 9.26845 52.9434 9.06375 52.8398 8.83891C52.7441 8.61413 52.6086 8.4014 52.4333 8.20068C52.2742 8.0321 52.0587 7.88359 51.7882 7.75516C51.525 7.62667 51.226 7.56246 50.8916 7.56246C50.0948 7.56246 49.4414 8.01606 48.9313 8.9232C48.4216 9.8304 48.1663 11.1109 48.1663 12.7647C48.1663 13.4149 48.2105 14.001 48.2979 14.5229C48.3936 15.0366 48.5571 15.5063 48.7879 15.9318C49.0191 16.3573 49.3137 16.6904 49.6726 16.9312C50.0389 17.1721 50.4773 17.2925 50.9869 17.2925C51.473 17.2925 51.8756 17.2002 52.1942 17.0155C52.5129 16.8229 52.8079 16.57 53.0789 16.2569ZM71.8555 8.9112C71.8555 9.52133 71.6681 10.0592 71.2938 10.5249C70.919 10.9825 70.425 11.2113 69.8114 11.2113C69.2298 11.2113 68.7358 11.0627 68.3295 10.7656C67.9311 10.4687 67.7316 10.0311 67.7316 9.45307C67.7316 9.1721 67.7522 8.95534 67.7915 8.80279C67.8314 8.64222 67.8676 8.49372 67.8991 8.35727C67.5327 8.37331 67.1464 8.50174 66.7401 8.74261C66.3338 8.98343 65.9753 9.30457 65.6645 9.70595V16.3171C65.6645 16.5981 65.7081 16.8309 65.7957 17.0155C65.8834 17.2002 66.0309 17.3447 66.2377 17.4491C66.413 17.5374 66.6959 17.6137 67.0865 17.6779C67.4849 17.7341 67.7715 17.7662 67.9468 17.7742V18.6533H59.951V17.7742C60.1504 17.7581 60.3496 17.7381 60.5491 17.714C60.7559 17.6819 60.9312 17.6418 61.0745 17.5936C61.3297 17.5052 61.505 17.3688 61.6005 17.1842C61.696 16.9995 61.7438 16.7587 61.7438 16.4616V9.45307C61.7438 9.16408 61.6761 8.90716 61.5407 8.68238C61.4052 8.44958 61.242 8.26496 61.0509 8.12845C60.9077 8.0321 60.7245 7.95184 60.5008 7.88763C60.2858 7.82341 60.0467 7.77922 59.784 7.75516V6.87606L65.485 6.563L65.6645 6.74359V8.48974H65.7123C66.2619 7.84747 66.8435 7.3457 67.4571 6.98447C68.0786 6.61516 68.7243 6.43054 69.393 6.43054C70.1342 6.43054 70.7279 6.66334 71.1741 7.12894C71.6281 7.58658 71.8555 8.18066 71.8555 8.9112ZM85.5402 15.7752C85.2615 16.2328 84.923 16.6664 84.5245 17.0758C84.134 17.4772 83.6878 17.8224 83.186 18.1114C82.6521 18.4164 82.1104 18.6453 81.5603 18.7978C81.0186 18.9584 80.3928 19.0387 79.6842 19.0387C78.5047 19.0387 77.4848 18.8701 76.6244 18.5329C75.7714 18.1957 75.0664 17.7421 74.5084 17.1721C73.951 16.6021 73.5326 15.9318 73.2539 15.1611C72.983 14.3824 72.847 13.5394 72.847 12.6322C72.847 11.8134 72.9945 11.0306 73.2895 10.284C73.5924 9.5294 74.0187 8.85899 74.5682 8.27298C75.11 7.70295 75.7913 7.24133 76.6123 6.88812C77.4406 6.53491 78.365 6.35824 79.385 6.35824C80.5004 6.35824 81.417 6.49475 82.134 6.76771C82.8511 7.04066 83.4448 7.41799 83.9151 7.89963C84.3692 8.35727 84.6999 8.89914 84.9066 9.52531C85.114 10.1435 85.2174 10.7937 85.2174 11.4762V12.2589H77.1383C77.1383 13.9047 77.4527 15.1571 78.0827 16.0161C78.7121 16.875 79.712 17.3046 81.082 17.3046C81.8317 17.3046 82.5046 17.0999 83.102 16.6904C83.6999 16.273 84.2096 15.7471 84.6322 15.1129L85.5402 15.7752ZM80.9744 11.1992C80.9744 10.7175 80.9508 10.2238 80.9031 9.71801C80.8553 9.21225 80.7713 8.79881 80.6522 8.47768C80.5168 8.10035 80.3293 7.81534 80.0905 7.62269C79.859 7.42999 79.5639 7.3337 79.206 7.3337C78.5924 7.3337 78.102 7.64675 77.7357 8.27298C77.3693 8.89914 77.1704 9.89063 77.1383 11.2474L80.9744 11.1992ZM101.257 12.7888C101.257 14.4827 100.695 15.9358 99.5721 17.148C98.4487 18.3602 97.0261 18.9664 95.3049 18.9664C94.5401 18.9664 93.9186 18.8861 93.441 18.7256C92.9627 18.573 92.5679 18.3844 92.2572 18.1596H92.1617V21.5434C92.1617 21.8244 92.2215 22.0692 92.3412 22.278C92.4688 22.4867 92.6441 22.6393 92.8672 22.7356C93.0818 22.8239 93.3847 22.9041 93.7753 22.9764C94.1737 23.0487 94.5044 23.0928 94.7674 23.1089V24H86.1376V23.1089C86.3371 23.0928 86.588 23.0607 86.8909 23.0125C87.1938 22.9724 87.4205 22.9283 87.5723 22.8801C87.8274 22.7917 87.9985 22.6393 88.0862 22.4225C88.1817 22.2138 88.2294 21.9729 88.2294 21.7V9.38084C88.2059 9.1159 88.1418 8.8831 88.0384 8.68238C87.9423 8.48166 87.7875 8.30505 87.5723 8.15251C87.4126 8.0482 87.2016 7.9639 86.9386 7.89963C86.6757 7.82739 86.4169 7.77922 86.1618 7.75516V6.87606L91.9827 6.563L92.1617 6.71947V8.05621L92.2572 8.08027C92.7832 7.54238 93.3648 7.12496 94.0026 6.82788C94.6477 6.53087 95.2855 6.38236 95.9149 6.38236C97.5642 6.38236 98.8671 6.97241 99.8229 8.15251C100.779 9.32464 101.257 10.8701 101.257 12.7888ZM96.9663 12.837C96.9663 12.2348 96.9228 11.6608 96.8351 11.1149C96.7474 10.561 96.5921 10.0672 96.369 9.63372C96.1537 9.20025 95.8666 8.855 95.508 8.59809C95.158 8.34117 94.7275 8.21274 94.2178 8.21274C93.6997 8.21274 93.285 8.30505 92.9742 8.48974C92.6635 8.66634 92.3926 8.89914 92.1617 9.18814V16.0161C92.2094 16.1766 92.3013 16.3854 92.4367 16.6422C92.5722 16.8911 92.7076 17.0918 92.843 17.2444C93.0419 17.4611 93.2693 17.6217 93.5244 17.726C93.7789 17.8304 94.0582 17.8826 94.3611 17.8826C95.1501 17.8826 95.7795 17.4571 96.2493 16.6061C96.7275 15.7471 96.9663 14.4907 96.9663 12.837ZM115.014 8.12845C115.604 8.68238 116.054 9.34472 116.364 10.1154C116.675 10.8861 116.831 11.721 116.831 12.6202C116.831 13.5113 116.675 14.3543 116.364 15.149C116.061 15.9358 115.615 16.6102 115.026 17.1721C114.396 17.7742 113.644 18.2358 112.767 18.5569C111.898 18.878 110.903 19.0387 109.779 19.0387C108.806 19.0387 107.91 18.8982 107.089 18.6172C106.277 18.3362 105.556 17.9147 104.926 17.3528C104.32 16.8149 103.843 16.1525 103.492 15.3658C103.142 14.571 102.966 13.6839 102.966 12.7045C102.966 11.7411 103.118 10.8861 103.421 10.1395C103.731 9.38482 104.193 8.71452 104.807 8.12845C105.397 7.5665 106.122 7.13298 106.982 6.82788C107.851 6.51483 108.819 6.35824 109.886 6.35824C111.002 6.35824 111.982 6.51483 112.827 6.82788C113.679 7.13298 114.409 7.5665 115.014 8.12845ZM111.954 16.4737C112.129 16.0241 112.257 15.4782 112.337 14.8359C112.424 14.1937 112.468 13.4471 112.468 12.5961C112.468 12.0341 112.429 11.3919 112.349 10.6693C112.269 9.94683 112.15 9.3768 111.99 8.95938C111.799 8.45356 111.532 8.05621 111.189 7.76716C110.854 7.47817 110.429 7.3337 109.91 7.3337C109.345 7.3337 108.891 7.49022 108.548 7.80334C108.213 8.11639 107.955 8.52181 107.771 9.01955C107.604 9.47719 107.488 10.015 107.424 10.6332C107.361 11.2434 107.329 11.8816 107.329 12.5479C107.329 13.423 107.357 14.1495 107.412 14.7275C107.469 15.2975 107.604 15.8716 107.819 16.4496C108.002 16.9473 108.265 17.3407 108.608 17.6297C108.95 17.9187 109.384 18.0633 109.91 18.0633C110.389 18.0633 110.799 17.9308 111.141 17.6658C111.484 17.3929 111.755 16.9955 111.954 16.4737ZM130.276 8.9112C130.276 9.52133 130.09 10.0592 129.715 10.5249C129.341 10.9825 128.847 11.2113 128.233 11.2113C127.651 11.2113 127.157 11.0627 126.751 10.7656C126.352 10.4687 126.153 10.0311 126.153 9.45307C126.153 9.1721 126.173 8.95534 126.213 8.80279C126.253 8.64222 126.289 8.49372 126.321 8.35727C125.954 8.37331 125.568 8.50174 125.161 8.74261C124.755 8.98343 124.396 9.30457 124.086 9.70595V16.3171C124.086 16.5981 124.129 16.8309 124.217 17.0155C124.304 17.2002 124.452 17.3447 124.659 17.4491C124.834 17.5374 125.118 17.6137 125.508 17.6779C125.906 17.7341 126.193 17.7662 126.368 17.7742V18.6533H118.373V17.7742C118.572 17.7581 118.771 17.7381 118.97 17.714C119.178 17.6819 119.353 17.6418 119.496 17.5936C119.751 17.5052 119.926 17.3688 120.022 17.1842C120.118 16.9995 120.165 16.7587 120.165 16.4616V9.45307C120.165 9.16408 120.098 8.90716 119.962 8.68238C119.826 8.44958 119.664 8.26496 119.472 8.12845C119.329 8.0321 119.145 7.95184 118.922 7.88763C118.707 7.82341 118.468 7.77922 118.205 7.75516V6.87606L123.907 6.563L124.086 6.74359V8.48974H124.133C124.683 7.84747 125.265 7.3457 125.878 6.98447C126.5 6.61516 127.145 6.43054 127.815 6.43054C128.555 6.43054 129.15 6.66334 129.595 7.12894C130.049 7.58658 130.276 8.18066 130.276 8.9112ZM140.005 18.0993C139.496 18.3241 138.95 18.5248 138.368 18.7015C137.787 18.8861 137.077 18.9784 136.241 18.9784C134.998 18.9784 134.073 18.6734 133.468 18.0633C132.87 17.4531 132.571 16.5821 132.571 15.4501V8.05621H130.42V6.75565H132.619V3.10688H136.504V6.75565H139.85V8.05621H136.528V14.6553C136.528 15.5946 136.655 16.2609 136.91 16.6543C137.173 17.0477 137.639 17.2444 138.308 17.2444C138.524 17.2444 138.822 17.2283 139.205 17.1962C139.587 17.1641 139.854 17.128 140.005 17.0878V18.0993ZM148.396 18.6533H140.842V17.7742C141.05 17.7581 141.253 17.7381 141.452 17.714C141.651 17.6899 141.822 17.6498 141.966 17.5936C142.221 17.4972 142.4 17.3608 142.504 17.1842C142.607 16.9995 142.659 16.7587 142.659 16.4616V9.45307C142.659 9.1721 142.595 8.92724 142.468 8.7185C142.34 8.50174 142.181 8.32917 141.99 8.20068C141.846 8.10439 141.627 8.01202 141.333 7.92375C141.045 7.83541 140.782 7.77922 140.544 7.75516V6.87606L146.4 6.563L146.579 6.74359V16.3051C146.579 16.586 146.639 16.8269 146.759 17.0276C146.878 17.2203 147.049 17.3648 147.273 17.4611C147.432 17.5333 147.607 17.5976 147.799 17.6538C147.989 17.71 148.189 17.7501 148.396 17.7742V18.6533ZM146.651 2.2278C146.651 2.83794 146.416 3.35976 145.946 3.79328C145.484 4.21878 144.933 4.4315 144.296 4.4315C143.651 4.4315 143.093 4.21878 142.623 3.79328C142.161 3.35976 141.93 2.83794 141.93 2.2278C141.93 1.61766 142.161 1.09583 142.623 0.662318C143.093 0.2288 143.651 0.0120423 144.296 0.0120423C144.942 0.0120423 145.496 0.2288 145.958 0.662318C146.419 1.09583 146.651 1.61766 146.651 2.2278ZM165.272 18.6533H158.076V17.7742C158.228 17.7581 158.411 17.7381 158.627 17.714C158.842 17.6899 159.005 17.6498 159.116 17.5936C159.284 17.5052 159.404 17.3768 159.475 17.2082C159.547 17.0396 159.583 16.7908 159.583 16.4616V10.8259C159.583 10.0071 159.431 9.3929 159.129 8.98343C158.834 8.56601 158.396 8.35727 157.814 8.35727C157.495 8.35727 157.196 8.40544 156.917 8.50174C156.647 8.59809 156.38 8.73858 156.117 8.9232C155.885 9.08377 155.699 9.24837 155.555 9.41696C155.419 9.5856 155.304 9.73405 155.208 9.86254V16.3292C155.208 16.6102 155.248 16.8469 155.328 17.0396C155.408 17.2243 155.54 17.3648 155.722 17.4611C155.85 17.5333 156.009 17.5976 156.2 17.6538C156.391 17.71 156.579 17.7501 156.762 17.7742V18.6533H149.496V17.7742C149.695 17.7581 149.894 17.7381 150.093 17.714C150.3 17.6819 150.476 17.6418 150.619 17.5936C150.873 17.5052 151.049 17.3688 151.145 17.1842C151.24 16.9995 151.288 16.7587 151.288 16.4616V9.45307C151.288 9.20423 151.224 8.95938 151.097 8.7185C150.97 8.47768 150.802 8.28099 150.595 8.12845C150.451 8.0321 150.268 7.95184 150.045 7.88763C149.83 7.82341 149.591 7.77922 149.328 7.75516V6.87606L155.029 6.563L155.208 6.74359V8.48974H155.256C155.479 8.28901 155.751 8.04819 156.069 7.76716C156.388 7.48619 156.682 7.25742 156.953 7.08082C157.248 6.88812 157.635 6.72357 158.113 6.58706C158.591 6.45061 159.101 6.38236 159.643 6.38236C160.942 6.38236 161.914 6.75565 162.559 7.50228C163.212 8.24084 163.539 9.22425 163.539 10.4526V16.3532C163.539 16.6503 163.583 16.8871 163.67 17.0637C163.758 17.2404 163.922 17.3809 164.16 17.4852C164.288 17.5414 164.443 17.5976 164.627 17.6538C164.818 17.71 165.033 17.7501 165.272 17.7742V18.6533ZM179.782 8.05621H177.152C177.463 8.40942 177.694 8.78271 177.845 9.17614C178.005 9.5695 178.085 9.97897 178.085 10.4044C178.085 10.9583 177.937 11.4802 177.642 11.9699C177.348 12.4516 176.961 12.845 176.483 13.15C175.997 13.4631 175.427 13.708 174.774 13.8846C174.12 14.0612 173.412 14.1495 172.646 14.1495H170.698C170.603 14.2218 170.495 14.3382 170.376 14.4988C170.264 14.6513 170.208 14.7998 170.208 14.9443C170.208 15.2975 170.348 15.5424 170.626 15.6789C170.905 15.8154 171.411 15.8916 172.145 15.9077C172.869 15.9238 173.603 15.9558 174.343 16.004C175.085 16.0442 175.614 16.0682 175.933 16.0763C176.395 16.1004 176.854 16.1967 177.308 16.3653C177.762 16.5259 178.157 16.7386 178.491 17.0035C178.857 17.2845 179.16 17.6457 179.4 18.0873C179.638 18.5208 179.758 19.0226 179.758 19.5926C179.758 20.2027 179.611 20.7767 179.316 21.3146C179.029 21.8525 178.586 22.3181 177.989 22.7115C177.36 23.1209 176.602 23.438 175.718 23.6628C174.842 23.8876 173.754 24 172.455 24C170.36 24 168.766 23.7431 167.675 23.2293C166.583 22.7155 166.037 21.9448 166.037 20.9172C166.037 20.283 166.332 19.7612 166.922 19.3517C167.511 18.9423 168.428 18.7175 169.671 18.6774V18.5329C168.937 18.284 168.363 17.9549 167.949 17.5454C167.543 17.128 167.34 16.6463 167.34 16.1004C167.34 15.7632 167.419 15.4782 167.579 15.2454C167.746 15.0126 167.957 14.8078 168.212 14.6312C168.435 14.4787 168.706 14.3502 169.025 14.2459C169.344 14.1335 169.611 14.0452 169.825 13.9809V13.8485C168.75 13.4471 167.957 12.9574 167.448 12.3793C166.946 11.8013 166.694 11.0948 166.694 10.2599C166.694 9.07978 167.232 8.13647 168.308 7.42999C169.391 6.72357 170.762 6.3703 172.419 6.3703C172.961 6.3703 173.483 6.41848 173.985 6.51483C174.495 6.6031 174.882 6.68341 175.144 6.75565H179.782V8.05621ZM174.177 10.3563C174.177 9.41696 174.028 8.67436 173.734 8.12845C173.439 7.58254 172.985 7.30958 172.372 7.30958C172.061 7.30958 171.79 7.38585 171.559 7.5384C171.328 7.68287 171.14 7.89565 170.997 8.17662C170.862 8.44958 170.77 8.77071 170.722 9.13996C170.674 9.50131 170.651 9.87454 170.651 10.2599C170.651 11.135 170.802 11.8535 171.105 12.4154C171.408 12.9774 171.837 13.2584 172.395 13.2584C172.969 13.2584 173.407 13.0055 173.71 12.4997C174.021 11.994 174.177 11.2795 174.177 10.3563ZM176.184 20.4716C176.184 20.1987 176.108 19.9257 175.957 19.6528C175.805 19.3879 175.467 19.1711 174.941 19.0026C174.654 18.9544 174.18 18.9222 173.519 18.9061C172.866 18.8902 171.965 18.8821 170.817 18.8821C170.539 19.123 170.304 19.4079 170.113 19.7371C169.929 20.0662 169.838 20.4636 169.838 20.9293C169.838 21.13 169.893 21.3508 170.005 21.5916C170.117 21.8324 170.292 22.0572 170.531 22.2659C170.81 22.4988 171.12 22.6794 171.463 22.8078C171.805 22.9444 172.324 23.0125 173.017 23.0125C174.045 23.0125 174.83 22.8118 175.371 22.4104C175.913 22.0091 176.184 21.3628 176.184 20.4716ZM186.212 16.6543C186.212 17.2885 185.977 17.8384 185.506 18.304C185.045 18.7697 184.494 19.0026 183.857 19.0026C183.211 19.0026 182.654 18.7737 182.184 18.3162C181.722 17.8505 181.491 17.2966 181.491 16.6543C181.491 16.012 181.722 15.4581 182.184 14.9925C182.654 14.5188 183.211 14.282 183.857 14.282C184.494 14.282 185.045 14.5188 185.506 14.9925C185.977 15.4661 186.212 16.0201 186.212 16.6543Z" fill="#162521"/>
<path d="M186.212 0H211V24L186.212 0Z" fill="#96E0CB"/>
</g>
</g>
<defs>
<clipPath id="clip0_15556_68">
<rect width="211" height="24" fill="white"/>
</clipPath>
</defs>
</svg>
